<?xml version="1.0" encoding="utf-8"?>
<!-- Generator: Adobe Illustrator 24.1.0, SVG Export Plug-In . SVG Version: 6.00 Build 0)  -->
<svg version="1.1" id="Calque_1" xmlns="http://www.w3.org/2000/svg" xmlns:xlink="http://www.w3.org/1999/xlink" x="0px" y="0px"
	 viewBox="0 0 200 200" style="enable-background:new 0 0 200 200;" xml:space="preserve">
<style type="text/css">
	.st0{fill:#7964F2;}
</style>
<path class="st0" d="M103.4,87.5c-6.9,0-12.5,5.6-12.5,12.5c0,6.9,5.6,12.5,12.5,12.5s12.5-5.6,12.5-12.5
	C115.9,93.1,110.3,87.5,103.4,87.5z M187.1,50c-4.3-7.6-15.8-19.8-45.4-16.4C133.2,13.6,120.4,0,103.4,0S73.6,13.6,65.2,33.6
	C35.5,30.2,24,42.4,19.7,50c-6.4,11.5-5.9,28.6,9.8,50c-15.7,21.4-16.2,38.5-9.8,50c11.4,20.5,39.7,17,45.4,16.4
	c8.4,20,21.2,33.6,38.2,33.6s29.8-13.6,38.2-33.6c5.7,0.7,34,4.1,45.4-16.4c6.4-11.5,5.9-28.6-9.8-50
	C192.9,78.6,193.4,61.5,187.1,50L187.1,50z M40.6,137.5c-1.6-2.8,0-9.7,5.9-18.8c2.7,2.5,5.5,5,8.6,7.5c0.6,5.4,1.6,10.6,2.7,15.7
	C48,142.1,42.1,140.1,40.6,137.5z M55,73.9c-3,2.4-5.9,4.9-8.6,7.5c-5.9-9.2-7.4-16-5.9-18.8C42,60.1,47,58,55.4,58
	c0.7,0,1.5,0.2,2.3,0.2C56.6,63.4,55.7,68.6,55,73.9z M103.4,25c3.7,0,8.7,5.3,13.2,14.5c-4.4,1.5-8.8,3.1-13.2,5
	c-4.5-1.9-8.8-3.6-13.2-5C94.7,30.3,99.7,25,103.4,25z M103.4,175c-3.7,0-8.7-5.3-13.2-14.5c4.4-1.5,8.8-3.1,13.2-5
	c4.5,1.9,8.8,3.6,13.2,5C112.1,169.7,107.1,175,103.4,175z M103.4,131.2c-17.3,0-31.2-14-31.2-31.2s14-31.2,31.2-31.2
	s31.2,14,31.2,31.2S120.7,131.2,103.4,131.2z M166.2,137.5c-1.4,2.6-7.4,4.6-17,4.3c1.1-5.1,2-10.3,2.7-15.7c3-2.4,5.9-4.9,8.6-7.5
	C166.2,127.8,167.7,134.7,166.2,137.5z M160.3,81.3c-2.7-2.5-5.5-5-8.6-7.5c-0.6-5.3-1.5-10.5-2.7-15.7c0.7,0,1.6-0.2,2.3-0.2
	c8.4,0,13.5,2.1,14.8,4.5C167.7,65.3,166.2,72.2,160.3,81.3z"/>
</svg>
