<?xml version="1.0" encoding="utf-8"?>
<!-- Generator: Adobe Illustrator 24.1.0, SVG Export Plug-In . SVG Version: 6.00 Build 0)  -->
<svg version="1.1" id="Calque_1" xmlns="http://www.w3.org/2000/svg" xmlns:xlink="http://www.w3.org/1999/xlink" x="0px" y="0px"
	 viewBox="0 0 200 200" style="enable-background:new 0 0 200 200;" xml:space="preserve">
<style type="text/css">
	.st0{fill:#7964F2;}
</style>
<path class="st0" d="M187.6,140.3V9.4c0-5.2-4.2-9.4-9.4-9.4H50.4C29.8,0,13,16.8,13,37.4v124.7c0,20.7,16.8,37.4,37.4,37.4h127.9
	c5.2,0,9.4-4.2,9.4-9.4V184c0-2.9-1.4-5.6-3.5-7.3c-1.6-6-1.6-23.1,0-29.1C186.3,145.9,187.6,143.3,187.6,140.3L187.6,140.3z
	 M62.9,52.2c0-1.3,1.1-2.3,2.3-2.3h82.6c1.3,0,2.3,1.1,2.3,2.3V60c0,1.3-1.1,2.3-2.3,2.3H65.2c-1.3,0-2.3-1.1-2.3-2.3V52.2z
	 M62.9,77.2c0-1.3,1.1-2.3,2.3-2.3h82.6c1.3,0,2.3,1.1,2.3,2.3V85c0,1.3-1.1,2.3-2.3,2.3H65.2c-1.3,0-2.3-1.1-2.3-2.3V77.2z
	 M161.7,174.6H50.4c-6.9,0-12.5-5.6-12.5-12.5c0-6.9,5.6-12.5,12.5-12.5h111.3C160.9,156.4,160.9,168,161.7,174.6z"/>
</svg>
