<?xml version="1.0" encoding="utf-8"?>
<!-- Generator: Adobe Illustrator 24.1.0, SVG Export Plug-In . SVG Version: 6.00 Build 0)  -->
<svg version="1.1" id="Calque_1" xmlns="http://www.w3.org/2000/svg" xmlns:xlink="http://www.w3.org/1999/xlink" x="0px" y="0px"
	 viewBox="0 0 200 200" style="enable-background:new 0 0 200 200;" xml:space="preserve">
<style type="text/css">
	.st0{fill:#7964F2;}
</style>
<path id="XMLID_1_" class="st0" d="M137.4,37.5C137.4,16.8,120.6,0,99.9,0S62.5,16.8,62.5,37.5s16.8,37.5,37.5,37.5
	S137.4,58.2,137.4,37.5z M91.2,94.1C68.1,79.9,30.6,76,11.7,74.9C5.3,74.6,0,79.4,0,85.5v87c0,5.6,4.5,10.3,10.3,10.5
	c17.1,0.9,51.5,4.2,75.3,16.2c3.7,1.8,8-0.7,8-4.6v-96C93.7,96.8,92.8,95.1,91.2,94.1L91.2,94.1z M188.2,75
	c-18.9,1.1-56.4,5-79.5,19.2c-1.6,1-2.5,2.7-2.5,4.5v95.9c0,4,4.3,6.5,8,4.6c23.8-12,58.3-15.3,75.3-16.2c5.8-0.3,10.3-5,10.3-10.6
	v-87C199.9,79.4,194.6,74.6,188.2,75z"/>
</svg>
