<?xml version="1.0" encoding="utf-8"?>
<!-- Generator: Adobe Illustrator 24.1.0, SVG Export Plug-In . SVG Version: 6.00 Build 0)  -->
<svg version="1.1" id="Calque_1" xmlns="http://www.w3.org/2000/svg" xmlns:xlink="http://www.w3.org/1999/xlink" x="0px" y="0px"
	 viewBox="0 0 200 200" style="enable-background:new 0 0 200 200;" xml:space="preserve">
<style type="text/css">
	.st0{fill:#7964F2;}
</style>
<path class="st0" d="M169.2,0H31.8C21.8,0,13,8.8,13,18.8v162.5c0,10,8.8,18.8,18.8,18.8h137.5c10,0,18.8-8.8,18.8-18.8V18.8
	C188,8.8,179.2,0,169.2,0z M63,170c0,2.5-2.5,5-5,5H43c-2.5,0-5-2.5-5-5v-15c0-2.5,2.5-5,5-5h15c2.5,0,5,2.5,5,5V170z M63,120
	c0,2.5-2.5,5-5,5H43c-2.5,0-5-2.5-5-5v-15c0-2.5,2.5-5,5-5h15c2.5,0,5,2.5,5,5V120z M113,170c0,2.5-2.5,5-5,5H93c-2.5,0-5-2.5-5-5
	v-15c0-2.5,2.5-5,5-5h15c2.5,0,5,2.5,5,5L113,170L113,170z M113,120c0,2.5-2.5,5-5,5H93c-2.5,0-5-2.5-5-5v-15c0-2.5,2.5-5,5-5h15
	c2.5,0,5,2.5,5,5L113,120L113,120z M163,170c0,2.5-2.5,5-5,5h-15c-2.5,0-5-2.5-5-5v-65c0-2.5,2.5-5,5-5h15c2.5,0,5,2.5,5,5V170
	L163,170z M163,70c0,2.5-2.5,5-5,5H43c-2.5,0-5-2.5-5-5V30c0-2.5,2.5-5,5-5h115c2.5,0,5,2.5,5,5V70z"/>
</svg>
