<?xml version="1.0" encoding="utf-8"?>
<!-- Generator: Adobe Illustrator 24.1.0, SVG Export Plug-In . SVG Version: 6.00 Build 0)  -->
<svg version="1.1" id="Calque_1" xmlns="http://www.w3.org/2000/svg" xmlns:xlink="http://www.w3.org/1999/xlink" x="0px" y="0px"
	 viewBox="0 0 200 200" style="enable-background:new 0 0 200 200;" xml:space="preserve">
<style type="text/css">
	.st0{fill:#7964F2;}
</style>
<g>
	<path class="st0" d="M196.7,96.4h-26.6c-1.8,0-3.3,1.5-3.3,3.3v29.9h-23.3c-1.8,0-3.3,1.5-3.3,3.3v23.3h-23.3
		c-1.8,0-3.3,1.5-3.3,3.3v29.9h-6.7v-33.3c0-1.9-0.9-5.4-6.9-7.8c-3.5-1.4-8.1-2.2-13-2.2s-9.5,0.8-13,2.2c-0.1,0-0.2,0.1-0.3,0.1
		v-9c0-1.9-0.9-5.4-6.9-7.8c-3.5-1.4-8.1-2.2-13-2.2s-9.5,0.8-13,2.2c-0.1,0-0.2,0.1-0.3,0.1v-25.6c0-1.9-0.9-5.4-6.9-7.8
		c-3.5-1.4-8.1-2.2-13-2.2s-9.5,0.8-13,2.2c-6,2.4-6.9,5.9-6.9,7.8v83.1c0,1.9,0.9,5.4,6.9,7.8c3.5,1.4,8.1,2.2,13,2.2
		s9.5-0.8,13-2.2c1.3-0.5,2.5-1.2,3.6-2c1.1,0.8,2.3,1.5,3.6,2c3.5,1.4,8.1,2.2,13,2.2s9.5-0.8,13-2.2c1.3-0.5,2.5-1.2,3.6-2
		c1.1,0.8,2.3,1.5,3.6,2c3.5,1.4,8.1,2.2,13,2.2s9.5-0.8,13-2.2c0.8-0.3,1.6-0.7,2.4-1.1h94.4c1.8,0,3.3-1.5,3.3-3.3V99.8
		C200,97.9,198.5,96.4,196.7,96.4z M7.1,164c0.1,0,0.2,0.1,0.3,0.1c3.5,1.4,8.1,2.2,13,2.2s9.5-0.8,13-2.2c0.1,0,0.2-0.1,0.3-0.1
		v8.9c-0.6,1-5.2,3.5-13.3,3.5s-12.7-2.4-13.3-3.5V164z M7.1,147.3c0.1,0,0.2,0.1,0.3,0.1c3.5,1.4,8.1,2.2,13,2.2s9.5-0.8,13-2.2
		c0.1,0,0.2-0.1,0.3-0.1v8.9c-0.6,1-5.2,3.5-13.3,3.5s-12.7-2.4-13.3-3.5V147.3z M7.1,130.7c0.1,0,0.2,0.1,0.3,0.1
		c3.5,1.4,8.1,2.2,13,2.2s9.5-0.8,13-2.2c0.1,0,0.2-0.1,0.3-0.1v8.9c-0.6,1-5.2,3.5-13.3,3.5s-12.7-2.4-13.3-3.5V130.7z M7.1,114.1
		c0.1,0,0.2,0.1,0.3,0.1c3.5,1.4,8.1,2.2,13,2.2s9.5-0.8,13-2.2c0.1,0,0.2-0.1,0.3-0.1v8.9c-0.6,1-5.2,3.5-13.3,3.5
		S7.7,124,7.1,122.9V114.1z M53.7,159.6c-8.1,0-12.7-2.4-13.3-3.5v-8.9c0.1,0,0.2,0.1,0.3,0.1c3.5,1.4,8.1,2.2,13,2.2
		s9.5-0.8,13-2.2c0.1,0,0.2-0.1,0.3-0.1v8.9C66.4,157.2,61.8,159.6,53.7,159.6z M40.4,164c0.1,0,0.2,0.1,0.3,0.1
		c3.5,1.4,8.1,2.2,13,2.2s9.5-0.8,13-2.2c0.1,0,0.2-0.1,0.3-0.1v8.9c-0.6,1-5.2,3.5-13.3,3.5s-12.7-2.4-13.3-3.5V164z M73.6,164
		c0.1,0,0.2,0.1,0.3,0.1c3.5,1.4,8.1,2.2,13,2.2s9.5-0.8,13-2.2c0.1,0,0.2-0.1,0.3-0.1v8.9c-0.6,1-5.2,3.5-13.3,3.5
		s-12.7-2.4-13.3-3.5V164z M86.9,153c7.8,0,12.4,2.2,13.2,3.3c-0.9,1.1-5.4,3.3-13.2,3.3s-12.3-2.2-13.2-3.3
		C74.5,155.2,79.1,153,86.9,153z M53.7,136.4c7.8,0,12.4,2.2,13.2,3.3c-0.9,1.1-5.4,3.3-13.2,3.3s-12.3-2.2-13.2-3.3
		C41.3,138.6,45.9,136.4,53.7,136.4z M20.4,103.1c7.8,0,12.4,2.2,13.2,3.3c-0.9,1.1-5.4,3.3-13.2,3.3s-12.3-2.2-13.2-3.3
		C8,105.3,12.6,103.1,20.4,103.1z M20.4,192.9c-8.1,0-12.7-2.4-13.3-3.5v-8.9c0.1,0,0.2,0.1,0.3,0.1c3.5,1.4,8.1,2.2,13,2.2
		s9.5-0.8,13-2.2c0.1,0,0.2-0.1,0.3-0.1v8.9C33.1,190.5,28.5,192.9,20.4,192.9z M53.7,192.9c-8.1,0-12.7-2.4-13.3-3.5v-8.9
		c0.1,0,0.2,0.1,0.3,0.1c3.5,1.4,8.1,2.2,13,2.2s9.5-0.8,13-2.2c0.1,0,0.2-0.1,0.3-0.1v8.9C66.4,190.5,61.8,192.9,53.7,192.9z
		 M86.9,192.9c-8.1,0-12.7-2.4-13.3-3.5v-8.9c0.1,0,0.2,0.1,0.3,0.1c3.5,1.4,8.1,2.2,13,2.2s9.5-0.8,13-2.2c0.1,0,0.2-0.1,0.3-0.1
		v8.9C99.6,190.5,95,192.9,86.9,192.9z M120.2,163h20v26.6h-20V163z M146.8,136.4h20v53.2h-20V136.4z M173.4,189.6v-86.5h20v86.5
		H173.4z"/>
	<rect x="86.9" y="133" class="st0" width="6.7" height="6.7"/>
	<path class="st0" d="M100.2,133v6.7h16.6c0.9,0,1.7-0.3,2.4-1l67.5-67.5v5.3h6.7V63.2c0-1.8-1.5-3.3-3.3-3.3h-13.3v6.7h5.3
		L115.5,133H100.2z"/>
	<path class="st0" d="M144.3,21.1C129.6,7.5,110.3,0,90.3,0c-44,0-79.8,35.8-79.8,79.8c0,3.5,0.2,6.9,0.7,10.4l6.6-0.9
		c-0.4-3.2-0.6-6.4-0.6-9.6c0-1.1,0-2.2,0.1-3.3H32l9,12c0.6,0.8,1.6,1.3,2.7,1.3h24.7l7.5,12.4L65,110.4c-0.8,0.6-1.3,1.6-1.3,2.7
		v10h6.7v-8.3l12-9c1.4-1,1.7-2.9,0.9-4.4l-10-16.6c-0.6-1-1.7-1.6-2.9-1.6H45.4l-9-12c-0.6-0.8-1.6-1.3-2.7-1.3h-16
		c1.7-12.7,6.8-24.7,14.7-34.8l11.3,6.7v11.5c0,1.8,1.5,3.3,3.3,3.3h15.3l12.3,12.3c1.1,1.1,2.9,1.3,4.2,0.4l20-13.3
		c0.9-0.6,1.5-1.7,1.5-2.8V34.6l21.1-21.1c5.2,2.4,10,5.4,14.5,9l-17.8,14.8c-1.1,0.9-1.5,2.5-1,3.8l5.9,14.9l-7.9,10.5h-15
		c-0.7,0-1.4,0.2-2,0.7l-13.3,10c-1.4,1-1.7,3-0.8,4.5l13.3,20c0.6,0.9,1.7,1.5,2.8,1.5h10v20h6.7V99.8c0-1.8-1.5-3.3-3.3-3.3H102
		L91.5,80.6l9.9-7.4h15.5c1,0,2-0.5,2.7-1.3l10-13.3c0.7-0.9,0.9-2.2,0.4-3.2l-5.7-14.4L140.9,27c12.8,12.3,20.7,28.8,22.3,46.5
		l6.6-0.6C168.1,53,159,34.6,144.3,21.1z M94.5,30.9c-0.6,0.6-1,1.5-1,2.4v18.2L77.4,62.2L66,50.8c-0.6-0.6-1.5-1-2.4-1H50.3v-10
		c0-1.2-0.6-2.2-1.6-2.9l-11.9-7.2C56.7,8.6,87.2,1.1,114.7,10.8L94.5,30.9z"/>
</g>
</svg>
