<?xml version="1.0" encoding="utf-8"?>
<!-- Generator: Adobe Illustrator 24.1.0, SVG Export Plug-In . SVG Version: 6.00 Build 0)  -->
<svg version="1.1" id="Calque_1" xmlns="http://www.w3.org/2000/svg" xmlns:xlink="http://www.w3.org/1999/xlink" x="0px" y="0px"
	 viewBox="0 0 200 200" style="enable-background:new 0 0 200 200;" xml:space="preserve">
<style type="text/css">
	.st0{fill:#7964F2;}
</style>
<path class="st0" d="M182.7,157.3L137,83.8V24.9h3.1c5.2,0,9.4-4.2,9.4-9.4V9.4c0-5.2-4.2-9.4-9.4-9.4H59.1c-5.2,0-9.4,4.2-9.4,9.4
	v6.2c0,5.2,4.2,9.4,9.4,9.4h3.1v58.9l-45.7,73.5c-11.4,18.4,1.8,42.3,23.4,42.3h119.3C181,199.6,194.1,175.6,182.7,157.3z M66,124.7
	l18.8-30.2c1.4-2,2.3-4.5,2.3-7.2V24.9H112v62.4c0,2.7,0.9,5.1,2.3,7.2l18.8,30.2H66z"/>
</svg>
