<?xml version="1.0" encoding="utf-8"?>
<!-- Generator: Adobe Illustrator 24.1.0, SVG Export Plug-In . SVG Version: 6.00 Build 0)  -->
<svg version="1.1" id="Calque_1" xmlns="http://www.w3.org/2000/svg" xmlns:xlink="http://www.w3.org/1999/xlink" x="0px" y="0px"
	 viewBox="0 0 200 200" style="enable-background:new 0 0 200 200;" xml:space="preserve">
<style type="text/css">
	.st0{fill:#7964F2;}
</style>
<path class="st0" d="M135.8,61.2C130,25.2,116.2,0,100.2,0S70.4,25.2,64.6,61.2H135.8z M61.6,99.8c0,8.9,0.5,17.5,1.3,25.8h74.6
	c0.8-8.3,1.3-16.8,1.3-25.8s-0.5-17.5-1.3-25.8H62.9C62.1,82.3,61.6,90.9,61.6,99.8z M192.3,61.2c-11.5-27.3-34.8-48.5-63.6-57
	c9.8,13.6,16.6,34.1,20.1,57H192.3z M71.7,4.2C43,12.7,19.6,33.8,8.2,61.2h43.5C55.1,38.3,61.9,17.8,71.7,4.2L71.7,4.2z M196.6,74.1
	h-46.2c0.8,8.5,1.3,17.1,1.3,25.8s-0.5,17.3-1.3,25.8h46.1c2.2-8.3,3.5-16.8,3.5-25.8S198.8,82.3,196.6,74.1L196.6,74.1z M48.7,99.8
	c0-8.7,0.5-17.3,1.3-25.8H3.9c-2.2,8.3-3.5,16.8-3.5,25.8s1.3,17.5,3.5,25.8H50C49.2,117.1,48.7,108.5,48.7,99.8z M64.6,138.5
	c5.8,35.9,19.6,61.2,35.6,61.2s29.8-25.2,35.6-61.2H64.6z M128.7,195.5c28.7-8.5,52.1-29.7,63.6-57h-43.5
	C145.3,161.4,138.5,181.8,128.7,195.5z M8.2,138.5c11.5,27.3,34.8,48.5,63.6,57c-9.8-13.6-16.6-34.1-20.1-57H8.2z"/>
</svg>
