<?xml version="1.0" encoding="utf-8"?>
<!-- Generator: Adobe Illustrator 24.1.0, SVG Export Plug-In . SVG Version: 6.00 Build 0)  -->
<svg version="1.1" id="Calque_1" xmlns="http://www.w3.org/2000/svg" xmlns:xlink="http://www.w3.org/1999/xlink" x="0px" y="0px"
	 viewBox="0 0 200 200" style="enable-background:new 0 0 200 200;" xml:space="preserve">
<style type="text/css">
	.st0{fill:#7964F2;}
</style>
<path class="st0" d="M79.7,101.8c1.9,1.9,5.1,1.9,7.1,0l3.5-3.5c1.9-1.9,1.9-5.1,0-7.1L79.1,80l11.2-11.2c1.9-1.9,1.9-5.1,0-7.1
	l-3.5-3.5c-1.9-1.9-5.1-1.9-7.1,0L61.5,76.5c-1.9,1.9-1.9,5.1,0,7.1L79.7,101.8z M109.7,98.2l3.5,3.5c1.9,1.9,5.1,1.9,7.1,0
	l18.2-18.2c1.9-1.9,1.9-5.1,0-7.1l-18.2-18.2c-1.9-1.9-5.1-1.9-7.1,0l-3.6,3.5c-1.9,1.9-1.9,5.1,0,7.1L120.8,80l-11.2,11.2
	C107.8,93.1,107.8,96.3,109.7,98.2L109.7,98.2z M195,150h-75.8c-0.2,6.2-4.6,10-10.2,10H90c-5.8,0-10.3-5.5-10.2-10H5
	c-2.8,0-5,2.2-5,5v5c0,11,9,20,20,20h160c11,0,20-9,20-20v-5C200,152.2,197.8,150,195,150z M180,35c0-8.2-6.8-15-15-15H35
	c-8.2,0-15,6.8-15,15v105h160V35z M160,120H40V40h120V120z"/>
</svg>
