<?xml version="1.0" encoding="utf-8"?>
<!-- Generator: Adobe Illustrator 24.1.0, SVG Export Plug-In . SVG Version: 6.00 Build 0)  -->
<svg version="1.1" id="Calque_1" xmlns="http://www.w3.org/2000/svg" xmlns:xlink="http://www.w3.org/1999/xlink" x="0px" y="0px"
	 viewBox="0 0 200 200" style="enable-background:new 0 0 200 200;" xml:space="preserve">
<style type="text/css">
	.st0{fill:#7964F2;}
</style>
<path class="st0" d="M62.5,125h4.7v6.2c0,3.4,2.8,6.2,6.2,6.2h15.6c3.4,0,6.2-2.8,6.2-6.2V125h4.7c6.9,0,12.5-5.6,12.5-12.5V25
	c0-6.9-5.6-12.5-12.5-12.5V6.2c0-3.4-2.8-6.2-6.2-6.2h-25c-3.4,0-6.2,2.8-6.2,6.2v6.2C55.6,12.5,50,18.1,50,25v87.5
	C50,119.4,55.6,125,62.5,125z M181.2,175h-0.5c11.9-13.3,19.3-30.8,19.3-50c0-41.4-33.6-75-75-75v25c27.6,0,50,22.4,50,50
	s-22.4,50-50,50H18.8C8.4,175,0,183.4,0,193.8c0,3.4,2.8,6.2,6.2,6.2h187.5c3.4,0,6.2-2.8,6.2-6.2C200,183.4,191.6,175,181.2,175z
	 M40.6,162.5h81.2c1.7,0,3.1-1.4,3.1-3.1v-6.2c0-1.7-1.4-3.1-3.1-3.1H40.6c-1.7,0-3.1,1.4-3.1,3.1v6.2
	C37.5,161.1,38.9,162.5,40.6,162.5z"/>
</svg>
