<?xml version="1.0" encoding="utf-8"?>
<!-- Generator: Adobe Illustrator 24.1.0, SVG Export Plug-In . SVG Version: 6.00 Build 0)  -->
<svg version="1.1" id="Calque_1" xmlns="http://www.w3.org/2000/svg" xmlns:xlink="http://www.w3.org/1999/xlink" x="0px" y="0px"
	 viewBox="0 0 200 200" style="enable-background:new 0 0 200 200;" xml:space="preserve">
<style type="text/css">
	.st0{fill:#7964F2;}
</style>
<path class="st0" d="M65.2,120.8c-15.7,1-29.9,7-38,28.2c-0.9,2.4-3.1,3.9-5.7,3.9c-4.3,0-17.7-10.8-21.6-13.4
	C0,171.7,14.8,200,50,200c29.6,0,50-17.1,50-47c0-1.2-0.2-2.4-0.4-3.6L65.2,120.8L65.2,120.8z M178.9,0c-5.9,0-11.5,2.6-15.7,6.4
	c-79.8,71.3-88.2,73-88.2,94c0,5.4,1.2,10.5,3.4,15.1l24.9,20.8c2.8,0.7,5.7,1.2,8.8,1.2c24.3,0,38.3-17.8,82.5-100.2
	c2.9-5.6,5.4-11.6,5.4-18C200,8,189.8,0,178.9,0z"/>
</svg>
