<?xml version="1.0" encoding="utf-8"?>
<!-- Generator: Adobe Illustrator 24.1.0, SVG Export Plug-In . SVG Version: 6.00 Build 0)  -->
<svg version="1.1" id="Calque_1" xmlns="http://www.w3.org/2000/svg" xmlns:xlink="http://www.w3.org/1999/xlink" x="0px" y="0px"
	 viewBox="0 0 200 200" style="enable-background:new 0 0 200 200;" xml:space="preserve">
<style type="text/css">
	.st0{fill:#7964F2;}
</style>
<g id="Outline">
	<g>
		<path class="st0" d="M126.7,87.8h16.7c1.8,0,3.3-1.5,3.3-3.3s-1.5-3.3-3.3-3.3h-16.7c-1.8,0-3.3,1.5-3.3,3.3
			S124.9,87.8,126.7,87.8z"/>
		<path class="st0" d="M196.7,81.1c-1.8,0-3.3,1.5-3.3,3.3v109.9H23.5c-9.2,0-16.7-7.5-16.7-16.7s7.5-16.7,16.7-16.7
			s16.7,7.5,16.7,16.7c0,1.8,1.5,3.3,3.3,3.3c1.8,0,3.3-1.5,3.3-3.3V87.8h10c1.8,0,3.3-1.5,3.3-3.3s-1.5-3.3-3.3-3.3h-10v-10
			c0-12.9-10.4-23.3-23.3-23.3S0.2,58.3,0.2,71.1v106.6c0,12.9,10.4,23.3,23.3,23.3h173.2c1.8,0,3.3-1.5,3.3-3.3V84.5
			C200,82.6,198.5,81.1,196.7,81.1z M6.8,71.1c0-9.2,7.5-16.7,16.7-16.7s16.7,7.5,16.7,16.7v90.3c-9-9.2-23.7-9.4-32.9-0.4
			c-0.1,0.1-0.2,0.2-0.4,0.4V71.1z"/>
		<path class="st0" d="M153.6,122.4l5.3,13.3l0,0l8,20c0.7,1.7,2.6,2.5,4.3,1.9c0.8-0.3,1.5-1,1.9-1.9l8-20l0,0l5.3-13.3
			c0.1-0.4,0.2-0.7,0.2-1.1c0,0,0-0.1,0-0.1V64.5c0-1.8-1.5-3.3-3.3-3.3s-3.3,1.5-3.3,3.3v53.3h-6.7V41.2h6.7v10
			c0,1.8,1.5,3.3,3.3,3.3s3.3-1.5,3.3-3.3V17.9c0-9.2-7.5-16.7-16.7-16.7c-9.2,0-16.7,7.5-16.7,16.7v103.2c0,0,0,0.1,0,0.1
			C153.4,121.6,153.5,122,153.6,122.4z M166.9,137.8h6.2l-3.1,7.7L166.9,137.8z M175.8,131.1h-11.5l-2.7-6.7h16.8L175.8,131.1z
			 M166.7,117.8H160V41.2h6.7V117.8z M160,34.5v-6.7h20v6.7H160z M160,17.9c0-5.5,4.5-10,10-10s10,4.5,10,10v3.3h-20V17.9z"/>
		<path class="st0" d="M73.4,66.8v1.6c-5.2,1.8-7.9,7.5-6.1,12.7c1,2.9,3.2,5.1,6.1,6.1v0.6c0,8.7,5.6,16.3,13.8,19
			c-3.5,3.6-8,6.1-12.9,7.3l-5.1,1.3c-8.8,2.2-14.2,11.1-12,19.9c1.8,7.3,8.4,12.5,16,12.5h6.9c1.8,0,3.3-1.5,3.3-3.3
			s-1.5-3.3-3.3-3.3h-6.9c-5.4,0-9.7-4.4-9.7-9.8c0-4.5,3-8.4,7.4-9.5l5.1-1.2c7.7-1.9,14.5-6.5,19.2-12.9
			c10.4-1,18.3-9.6,18.3-19.9v-0.6c5.2-1.8,7.9-7.5,6.1-12.7c-1-2.9-3.2-5.1-6.1-6.1v-1.6c10.7-9.5,13.1-25.2,5.8-37.6
			c-0.9-1.6-3-2.1-4.6-1.2c-1.6,0.9-2.1,3-1.2,4.6c5.9,10,3.6,22.8-5.5,30c-0.8,0.6-1.2,1.6-1.2,2.6v2.5h-3l2.9-26.3
			c0.2-1.8-1.1-3.5-3-3.7c-0.5,0-1,0-1.4,0.2l-9,3l-9-3c-1.7-0.6-3.6,0.4-4.2,2.1c-0.2,0.5-0.2,1-0.2,1.4L83,67.8h-2.9v-2.5
			c0-1-0.5-2-1.2-2.6C68.8,54.7,67.2,40,75.1,30c7.2-9.1,20.1-11.4,30.1-5.5c1.6,0.9,3.6,0.4,4.6-1.2c0.9-1.6,0.4-3.6-1.2-4.6
			c-14.2-8.4-32.6-3.6-41,10.6C60.4,41.6,62.8,57.3,73.4,66.8z M93.4,101.1c-7.4,0-13.3-6-13.3-13.3h26.6
			C106.7,95.2,100.8,101.1,93.4,101.1z M87.3,46l5,1.7c0.7,0.2,1.4,0.2,2.1,0l5-1.7l-2.4,21.9h-7.3L87.3,46z M86.8,74.5h23.3
			c1.8,0,3.3,1.5,3.3,3.3c0,1.8-1.5,3.3-3.3,3.3H76.8c-1.8,0-3.3-1.5-3.3-3.3c0-1.8,1.5-3.3,3.3-3.3H86.8z"/>
		<circle class="st0" cx="53.5" cy="44.5" r="3.3"/>
		<circle class="st0" cx="133.4" cy="44.5" r="3.3"/>
		<circle class="st0" cx="93.4" cy="4.5" r="3.3"/>
		<path class="st0" d="M57.2,27.4c1.6,0.9,3.6,0.4,4.5-1.2s0.4-3.6-1.2-4.5s-3.6-0.4-4.5,1.2l0,0C55,24.4,55.5,26.5,57.2,27.4z"/>
		<path class="st0" d="M126.4,67.4c1.6,0.9,3.6,0.4,4.5-1.2s0.4-3.6-1.2-4.5c-1.6-0.9-3.6-0.4-4.5,1.2l0,0
			C124.2,64.4,124.8,66.4,126.4,67.4z"/>
		<circle class="st0" cx="113.4" cy="9.9" r="3.3"/>
		<path class="st0" d="M129.7,27.4c1.6-0.9,2.1-3,1.2-4.5c-0.9-1.6-3-2.1-4.5-1.2c-1.6,0.9-2.1,3-1.2,4.5l0,0
			C126.1,27.8,128.1,28.3,129.7,27.4z"/>
		<path class="st0" d="M61.7,62.8c-0.9-1.6-3-2.1-4.5-1.2c-1.6,0.9-2.1,3-1.2,4.5c0.9,1.6,3,2.1,4.5,1.2l0,0
			C62.1,66.4,62.6,64.4,61.7,62.8z"/>
		<path class="st0" d="M75.1,12.8c1.6-0.9,2.1-3,1.2-4.5s-3-2.1-4.5-1.2s-2.1,3-1.2,4.5l0,0C71.5,13.2,73.5,13.7,75.1,12.8z"/>
		<path class="st0" d="M110.1,174.4h13.3c1.8,0,3.3-1.5,3.3-3.3v-5.6c1.1-0.5,2.2-1.2,3.2-1.9l4.8,2.8c1.6,0.9,3.6,0.4,4.5-1.2
			l6.7-11.5c0.9-1.6,0.4-3.6-1.2-4.5l-4.8-2.8c0-0.6,0.1-1.2,0.1-1.9s0-1.2-0.1-1.9l4.8-2.8c1.6-0.9,2.1-3,1.2-4.5l-6.7-11.5
			c-0.9-1.6-3-2.1-4.5-1.2l-4.8,2.8c-1-0.7-2.1-1.3-3.2-1.9v-5.7c0-1.8-1.5-3.3-3.3-3.3h-13.3c-1.8,0-3.3,1.5-3.3,3.3v5.6
			c-1.1,0.5-2.2,1.2-3.2,1.9l-4.8-2.8c-1.6-0.9-3.6-0.4-4.5,1.2l-6.7,11.5c-0.9,1.6-0.4,3.6,1.2,4.5l4.8,2.8c0,0.6-0.1,1.2-0.1,1.9
			s0,1.2,0.1,1.9l-4.8,2.8c-1.6,0.9-2.2,3-1.2,4.5c0.9,1.6,3,2.2,4.5,1.2c0,0,0,0,0,0l6.7-3.9c1.2-0.7,1.9-2.1,1.6-3.5
			c-0.4-2-0.4-4.1,0-6.1c0.2-1.4-0.4-2.8-1.6-3.5l-3.9-2.2l3.3-5.8l3.9,2.2c1.2,0.7,2.7,0.6,3.8-0.3c1.5-1.3,3.3-2.4,5.2-3
			c1.3-0.5,2.2-1.7,2.2-3.1v-4.4h6.7v4.5c0,1.4,0.9,2.7,2.2,3.1c1.9,0.7,3.7,1.7,5.2,3c1.1,0.9,2.6,1,3.8,0.3l3.9-2.2l3.3,5.8
			l-3.9,2.2c-1.2,0.7-1.9,2.1-1.6,3.5c0.4,2,0.4,4.1,0,6.1c-0.2,1.4,0.4,2.8,1.6,3.5l3.9,2.2l-3.3,5.8l-3.9-2.2
			c-1.2-0.7-2.7-0.6-3.8,0.3c-1.5,1.3-3.3,2.4-5.2,3c-1.3,0.5-2.2,1.7-2.2,3.1v4.5h-6.7v-4.5c0-1.4-0.9-2.7-2.2-3.1
			c-1.9-0.7-3.7-1.7-5.2-3c-1.1-0.9-2.6-1-3.8-0.3l-6.8,3.9c-1.6,0.9-2.2,3-1.2,4.5c0.9,1.6,3,2.2,4.5,1.2c0,0,0,0,0,0l4.8-2.8
			c1,0.7,2.1,1.3,3.2,1.9v5.6C106.7,172.9,108.2,174.4,110.1,174.4L110.1,174.4z"/>
		<path class="st0" d="M126.7,144.4c0-5.5-4.5-10-10-10s-10,4.5-10,10c0,5.5,4.5,10,10,10S126.7,150,126.7,144.4z M113.4,144.4
			c0-1.8,1.5-3.3,3.3-3.3s3.3,1.5,3.3,3.3c0,1.8-1.5,3.3-3.3,3.3S113.4,146.3,113.4,144.4z"/>
		<path class="st0" d="M120.1,187.7h40c7.4,0,13.3-6,13.3-13.3v-6.7c0-1.8-1.5-3.3-3.3-3.3s-3.3,1.5-3.3,3.3v6.7
			c0,3.7-3,6.7-6.7,6.7h-40c-1.8,0-3.3,1.5-3.3,3.3S118.2,187.7,120.1,187.7z"/>
		<path class="st0" d="M60.1,174.4c0,5.5,4.5,10,10,10s10-4.5,10-10c0-5.5-4.5-10-10-10S60.1,168.9,60.1,174.4z M73.4,174.4
			c0,1.8-1.5,3.3-3.3,3.3c-1.8,0-3.3-1.5-3.3-3.3c0-1.8,1.5-3.3,3.3-3.3C71.9,171.1,73.4,172.6,73.4,174.4z"/>
	</g>
</g>
</svg>
