<?xml version="1.0" encoding="utf-8"?>
<!-- Generator: Adobe Illustrator 24.1.0, SVG Export Plug-In . SVG Version: 6.00 Build 0)  -->
<svg version="1.1" id="Calque_1" xmlns="http://www.w3.org/2000/svg" xmlns:xlink="http://www.w3.org/1999/xlink" x="0px" y="0px"
	 viewBox="0 0 200 200" style="enable-background:new 0 0 200 200;" xml:space="preserve">
<style type="text/css">
	.st0{fill:#7964F2;}
</style>
<path class="st0" d="M200,47v6.7c0,1.8-1.5,3.3-3.3,3.3h-10v5c0,2.8-2.2,5-5,5H18.3c-2.8,0-5-2.2-5-5v-5h-10C1.5,57,0,55.5,0,53.7
	V47c0-1.3,0.8-2.6,2-3.1L98.7,7.2c0.8-0.3,1.8-0.3,2.5,0l96.7,36.7C199.2,44.4,200,45.7,200,47z M190,173.7H10c-5.5,0-10,4.5-10,10
	v6.7c0,1.8,1.5,3.3,3.3,3.3h193.3c1.8,0,3.3-1.5,3.3-3.3v-6.7C200,178.1,195.5,173.7,190,173.7z M33.3,73.7v80h-15c-2.8,0-5,2.2-5,5
	v8.3h173.3v-8.3c0-2.8-2.2-5-5-5h-15v-80H140v80h-26.7v-80H86.7v80H60v-80H33.3z"/>
</svg>
