<?xml version="1.0" encoding="utf-8"?>
<!-- Generator: Adobe Illustrator 24.1.0, SVG Export Plug-In . SVG Version: 6.00 Build 0)  -->
<svg version="1.1" id="Calque_1" xmlns="http://www.w3.org/2000/svg" xmlns:xlink="http://www.w3.org/1999/xlink" x="0px" y="0px"
	 viewBox="0 0 500 500" style="enable-background:new 0 0 500 500;" xml:space="preserve">
<style type="text/css">
	.st0{fill:#AE58D1;}
</style>
<g>
	<path class="st0" d="M190.1,254.7c0-23.5,0.1-47-0.1-70.5c-0.1-7.9,3.1-11.3,11.1-11.2c21.6,0.2,43.2,0.2,64.7,0
		c8.1-0.1,11.1,3.5,10.9,11.3c-0.3,13.4-0.4,26.9,0,40.3c0.2,8.4-2.8,12.7-11.6,12c-3.3-0.3-6.7-0.1-10.1,0
		c-22.8,0.3-47.7-6.2-62.4,21.6C191.8,257,190.9,255.9,190.1,254.7z M202.7,229c5.3-3.5,11.2-4.3,17.4-4c6.2,0.3,12.5,0.1,18.7,0.1
		c26.4,0,25.8,0,26.5-26.4c0.3-11.5-3.2-15.8-14.4-14.1c-3.3,0.5-6.7,0.1-10.1,0.1c-41.5,0-41.5,0-38.9,42.2
		C202,227.3,202.3,227.7,202.7,229z"/>
	<path class="st0" d="M302.1,287c-11.3-24.4-32-22.4-52.3-21.6c-8.6,0.4-17.3-0.1-25.9,0.1c-7,0.2-10.6-2.4-10.8-10
		c-0.2-8.6,5.5-7.3,10.6-7.4c17.7,0,35.5-0.4,53.2,0.2c8.7,0.3,12.1-2.2,11.5-11.2c-0.7-10.5-0.1-21.1-0.2-31.6
		c0-5.1-0.1-9.6,7.2-9.3c6.3,0.3,10.1,2.3,10.1,9.2c0,26.2,0,52.4,0,78.6C304.3,285,303.2,286,302.1,287z"/>
</g>
</svg>
