<?xml version="1.0" encoding="utf-8"?>
<!-- Generator: Adobe Illustrator 24.1.0, SVG Export Plug-In . SVG Version: 6.00 Build 0)  -->
<svg version="1.1" id="Calque_1" xmlns="http://www.w3.org/2000/svg" xmlns:xlink="http://www.w3.org/1999/xlink" x="0px" y="0px"
	 viewBox="0 0 500 500" style="enable-background:new 0 0 500 500;" xml:space="preserve">
<g>
	<path d="M248.1,331.1c-18,0-36-0.3-54,0.1c-16.6,0.3-25.2-6.8-25.1-24c0.2-38.3,0.1-76.6,0-114.9c0-15.8,7.5-23.5,23.3-23.5
		c38.2,0.1,76.5,0.2,114.7,0c17.2-0.1,24.2,8.4,24.1,25.1c-0.3,37.5-0.3,75.1,0,112.6c0.1,16.9-7.6,24.9-24.5,24.6
		C287,330.9,267.5,331.1,248.1,331.1z M312.5,188.7c-41.4,0-82.6,0-124.1,0c0,41.5,0,82.3,0,122.6c42.2,0,83,0,124.1,0
		C312.5,270,312.5,230.3,312.5,188.7z"/>
	<path d="M258.4,208.7c0,27.6,0,55.3,0,84.1c-11.8,4.5-17.9,2.8-17.5-11.6c0.5-21-0.6-42,0.6-63c0.3-5.2,6.9-10.1,10.6-15.1
		C254.2,205,256.3,206.9,258.4,208.7z"/>
	<path d="M205.5,296.9c0-24.1,0-42.7,0-64.4c5.8,0.8,15.2,1.1,15.3,2.1c1.2,18.6,1.8,37.2,1.1,55.8
		C221.8,292.5,212.8,294.1,205.5,296.9z"/>
	<path d="M294.5,257.4c0,15,0,24.6,0,37.3c-5.9-0.9-15.1-0.9-15.4-2.5c-1.7-9.4-2.3-19.3-0.9-28.7
		C278.5,261.2,287.2,260,294.5,257.4z"/>
</g>
</svg>
