<?xml version="1.0" encoding="utf-8"?>
<!-- Generator: Adobe Illustrator 24.1.0, SVG Export Plug-In . SVG Version: 6.00 Build 0)  -->
<svg version="1.1" id="Calque_1" xmlns="http://www.w3.org/2000/svg" xmlns:xlink="http://www.w3.org/1999/xlink" x="0px" y="0px"
	 viewBox="0 0 500 500" style="enable-background:new 0 0 500 500;" xml:space="preserve">
<g>
	<path d="M397.1,468.8c-99,0-195.9,0-292.9,0c-14.3,0-27.6-2.6-36.7-15c-6.6-8.9-9.7-19-8.8-30.2c0.5-6.3-0.3-12.6-0.6-18.9
		c-1-18.2,4.6-35.1,12.8-50.9c16.8-32.2,43.4-52.2,78.9-60.4c20-4.6,39.2-1.2,58.1,5.1c11.8,3.9,23.9,5.6,36.2,6
		c18.7,0.5,36.9-1.8,54.7-8c10.2-3.5,20.4-6.5,31.6-5.7c19.4,1.4,37.6,6.4,54.3,16.2c15.6,9.2,28,21.7,38.3,36.6
		c7.1,10.2,8.5,22.2,11.5,33.7c4.3,16.2,6.5,32.8,7.5,49.5c0.9,14-9.5,30.7-23.3,38.2C411.1,469.1,403.1,469,397.1,468.8z
		 M400,411.6c-0.3-28.5-8.5-47.8-27.6-62.7c-18.3-14.2-38.5-20.4-61.6-12.9c-22.2,7.3-44.8,11.5-68.4,10.2
		c-13.2-0.7-26.1-2.7-38.8-6c-8.8-2.3-17.5-6.2-26.4-7.1c-31.4-3-62.3,17.5-73,47.7c-4.4,12.5-5.3,25.4-4.5,38.7
		c0.4,6.1,1.8,8.3,8.3,8.3c93.4-0.1,186.9-0.1,280.3-0.1c2.2,0,4.3,0.1,6.4,0.4c3.8,0.6,5.2-1.1,5.2-4.7
		C400,419.6,400,415.6,400,411.6z"/>
	<path d="M372.9,156.8c-0.5,68.3-57.2,122-122.9,121.5c-65.8-0.5-122.5-49.2-123.6-123.1c-1-69.1,54.3-123.8,123.4-124
		C317,30.9,373.9,85.3,372.9,156.8z M330.8,155.1c3.7-39.6-33.4-86.5-88.1-82c-40.8,3.3-76.4,37.3-74.5,84.7
		c1.8,44.7,36.2,79.1,82.9,78.6C301,235.8,333.2,193.2,330.8,155.1z"/>
</g>
</svg>
