<?xml version="1.0" encoding="utf-8"?>
<!-- Generator: Adobe Illustrator 24.1.0, SVG Export Plug-In . SVG Version: 6.00 Build 0)  -->
<svg version="1.1" id="Calque_1" xmlns="http://www.w3.org/2000/svg" x="0px" y="0px"
	 viewBox="0 0 98.2 129" style="enable-background:new 0 0 98.2 129;" xml:space="preserve">
<style type="text/css">
	.st0{fill:none;stroke:#6357A8;stroke-width:2;stroke-miterlimit:10;}
</style>
<path class="st0" d="M32.3,51.8c0.1,1,0.2,1.8,0.2,2.5c0,12.7,0,25.3,0,38c-0.1,0.9,0.2,1.7,0.7,2.4c1.7,1.4,4.1,1.6,6,0.5
	c1.9-1.1,4.2-1.8,4.1-4.9c-0.2-11.8-0.1-23.7-0.1-35.5c0-1.8,0-3.7,0-5.6c0-1.3,0.4-2,1.8-2c2.4,0,4.9,0,7.3,0
	c1.2,0,1.7,0.6,1.7,1.8c0,0.6,0,1.2,0,1.8c0,12.4,0,24.9,0,37.3c0,0.8,0,2,0.5,2.3c1.7,1.3,3.6,2.3,5.6,2.9c3.1,0.7,4.7-0.9,4.7-4
	c0-11.7,0-23.4,0-35.2c0-0.7,0.1-1.4,0.2-2.5c0.8,0.5,1.3,0.7,1.8,1.1c6.7,4.5,11.3,11.4,13,19.3c2.6,12.5-1,23.1-10.7,31.4
	c-2.7,2.3-4.9,5.2-6.5,8.4c-0.7,1.3-1.4,2.7-2.2,4.2C73,113.2,88.6,98.6,88,77.9c-0.8-21.7-19-38.6-40.7-37.8
	c-21.7,0.8-38.6,19-37.8,40.7c0.4,10.5,5.1,20.4,13,27.4c3.9,3.6,8.6,6.2,13.7,7.6c-1.3-2.9-2.7-5.7-4.2-8.5c-0.6-1-1.3-1.8-2.2-2.5
	C15.4,94.3,12.4,74.2,23,60c2.1-2.9,4.7-5.4,7.7-7.4C31.2,52.3,31.8,52,32.3,51.8z M96.9,20.6c-1-0.5-1.4-0.8-1.9-1
	C81.8,14,68.5,8.4,55.3,2.7C51.4,1,47.7-0.7,43.6,2.1c-0.7,0.4-1.5,0.7-2.3,1c-6.6,2.7-13,6.2-20.4,6.2c-1.4,0-1.9,1-1.9,2.3
	c0,3.3,0.1,6.6,0,9.9c-0.1,3.5-0.2,6.9-0.5,10.4c-0.1,2-0.6,4-0.8,6c-0.2,1.6,0.5,2.2,2.4,2.2c1.9,0,2.8-0.5,2.6-2.2
	c-0.1-1.5-0.4-3-0.6-4.4c-0.2-1.9-0.5-3.9-0.8-5.8c-0.1-0.9,0.3-1.4,1.2-1.2c0.8,0.2,1.5,0.4,2.2,0.6c1.8,0.4,2.3,0.2,2.1-1.6
	c-0.3-2.7,1-4.5,2.9-6.1c4.2-3.5,9.4-5.6,14.9-6.1c8.5-1,16.3,0.9,23,6.3c1.9,1.3,3,3.5,2.8,5.8c-0.2,1.9,0.3,2.2,2.2,1.7
	c6.4-1.7,12.8-3.3,19.2-5C93.5,21.6,94.9,21.1,96.9,20.6z M30.4,40.8c12.4-6.3,24.5-5.8,36.9,0v-2.3c0-4.2-0.1-8.5,0-12.7
	c0.1-1.8-0.7-3.5-2.2-4.6c-6.3-5.1-13.5-6.3-21.3-5.2c-4.6,0.5-8.9,2.6-12.2,5.8c-0.8,0.9-1.3,2-1.4,3.3c-0.2,4.5-0.1,9-0.1,13.4
	C30.3,39.2,30.3,39.7,30.4,40.8z M63.7,101.5c-4.8,0.3-7.9-1.9-11.1-4.2c-2.6-1.9-5.1-1.7-7.8,0.1c-1.7,1.3-3.4,2.4-5.3,3.3
	c-1.8,0.6-3.6,1-5.4,1.2c0,0.3,0.1,0.6,0.2,0.8c2.7,4.9,5.3,9.8,8.1,14.7c0.3,0.5,0.8,0.8,1.4,0.9c3.1,0.1,6.3,0.2,9.4,0.1
	c0.8-0.2,1.5-0.7,1.9-1.4c1.3-2.1,2.5-4.4,3.7-6.6C60.3,107.8,61.9,104.9,63.7,101.5z M16.5,13.7L1,20.3c0.4,0.3,0.6,0.6,0.8,0.6
	c4.5,1.2,9.1,2.4,13.7,3.5c0.3,0.1,1-0.5,1-0.7C16.5,20.5,16.5,17.4,16.5,13.7z M48.4,128.4l0.6-0.1c1.1-2,2.2-4.1,3.4-6.3h-7.6
	L48.4,128.4z"/>
<path class="st0" d="M32.3,51.8c-0.6,0.2-1.1,0.5-1.6,0.8c-14.6,10-18.4,29.9-8.5,44.5c2,3,4.5,5.6,7.4,7.7c0.9,0.7,1.6,1.5,2.2,2.5
	c1.6,2.8,3,5.6,4.2,8.5c-5-1.4-9.7-4-13.5-7.6c-7.9-7-12.6-16.9-13-27.4C8.8,59.2,25.7,40.9,47.4,40.1C69.1,39.3,87.4,56.3,88.2,78
	c0.6,20.7-15,35.3-27.3,38.1c0.8-1.5,1.5-2.9,2.2-4.2c1.5-3.2,3.7-6,6.5-8.4c9.6-8.3,13.3-18.9,10.7-31.4c-1.7-7.9-6.3-14.8-13-19.3
	c-0.5-0.3-1-0.6-1.8-1.1c-0.1,1-0.2,1.7-0.2,2.5c0,11.7,0,23.4,0,35.2c0,3.1-1.5,4.7-4.7,4c-2-0.6-3.9-1.6-5.6-2.9
	c-0.5-0.3-0.5-1.5-0.5-2.3c0-12.4,0-24.9,0-37.3c0-0.6,0-1.2,0-1.8c0-1.2-0.5-1.8-1.7-1.8c-2.4,0-4.9,0-7.3,0c-1.4,0-1.9,0.7-1.8,2
	c0,1.8,0,3.7,0,5.6c0,11.8-0.1,23.7,0.1,35.5c0,3.1-2.2,3.8-4.1,4.9c-1.9,1.1-4.3,1-6-0.5c-0.5-0.7-0.8-1.6-0.7-2.4
	c0-12.7,0-25.3,0-38C32.5,53.6,32.4,52.8,32.3,51.8z"/>
<path class="st0" d="M96.9,20.6c-1.9,0.6-3.4,1-4.8,1.4c-6.4,1.7-12.8,3.3-19.2,5c-1.9,0.5-2.4,0.2-2.2-1.7c0.2-2.3-0.9-4.5-2.8-5.8
	c-6.8-5.5-14.5-7.3-23-6.3c-5.4,0.5-10.6,2.7-14.9,6.1c-2,1.6-3.2,3.4-2.9,6.1c0.2,1.8-0.3,2.1-2.1,1.6c-0.7-0.2-1.5-0.4-2.2-0.6
	c-1-0.2-1.4,0.2-1.2,1.2c0.2,1.9,0.5,3.9,0.8,5.8c0.2,1.5,0.4,3,0.6,4.4c0.1,1.7-0.6,2.2-2.6,2.2s-2.6-0.6-2.4-2.2
	c0.2-2,0.7-4,0.8-6c0.2-3.4,0.4-6.9,0.5-10.4c0.1-3.3,0-6.6,0-9.9c0-1.3,0.5-2.3,1.9-2.3c7.4,0,13.8-3.4,20.4-6.2
	c0.8-0.3,1.6-0.6,2.3-1c4.1-2.9,7.7-1.1,11.7,0.6C68.5,8.4,81.8,13.9,95,19.6C95.5,19.7,95.9,20,96.9,20.6z"/>
<path class="st0" d="M30.4,40.8c-0.1-1.1-0.1-1.7-0.1-2.3c0-4.5-0.1-9,0.1-13.4c0.1-1.2,0.6-2.4,1.4-3.3c3.3-3.2,7.6-5.3,12.2-5.8
	c7.8-1.2,15,0.1,21.3,5.2c1.5,1,2.3,2.8,2.2,4.6c-0.2,4.2,0,8.5,0,12.7v2.4C54.9,35.1,42.8,34.6,30.4,40.8z"/>
<path class="st0" d="M63.7,101.5c-1.8,3.4-3.4,6.2-4.9,9c-1.2,2.2-2.3,4.4-3.7,6.6c-0.4,0.7-1.1,1.2-1.9,1.4c-3.1,0.1-6.3,0-9.4-0.1
	c-0.6-0.1-1.1-0.4-1.4-0.9c-2.7-4.9-5.4-9.8-8.1-14.7c-0.1-0.3-0.2-0.6-0.2-0.8c1.8-0.2,3.7-0.6,5.4-1.2c1.9-0.9,3.6-2.1,5.3-3.3
	c2.7-1.8,5.2-2,7.8-0.1C55.8,99.7,58.9,101.9,63.7,101.5z"/>
<path class="st0" d="M16.5,13.7c0,3.7,0,6.8,0,10c0,0.3-0.7,0.8-1,0.7c-4.6-1.1-9.1-2.3-13.7-3.5c-0.2,0-0.3-0.3-0.8-0.6L16.5,13.7z
	"/>
<path class="st0" d="M48.4,128.4l-3.5-6.4h7.6c-1.2,2.2-2.3,4.3-3.4,6.3L48.4,128.4z"/>
</svg>
