<svg xmlns="http://www.w3.org/2000/svg" viewBox="0 0 78.42 86.18"><defs><style>.a{opacity:0.25;}.b,.c{fill:#6357a8;}.c{font-size:19.42px;font-family:Barlow-Bold, Barlow;font-weight:700;}.d,.e,.f{fill:#bf4886;}.d{letter-spacing:-0.05em;}.f{letter-spacing:-0.01em;}</style></defs><g class="a"><path class="b" d="M38.62,41.91c.06.71.14,1.21.14,1.71,0,8.54,0,17.09,0,25.63a2.28,2.28,0,0,0,.47,1.63,3.49,3.49,0,0,0,4.08.31c1.28-.75,2.81-1.21,2.78-3.32-.11-8,0-16,0-23.94,0-1.25,0-2.5,0-3.74,0-.88.26-1.39,1.23-1.37,1.65,0,3.3,0,5,0,.83,0,1.16.44,1.14,1.22,0,.4,0,.81,0,1.21,0,8.38,0,16.76,0,25.14,0,.54,0,1.35.35,1.56a12.37,12.37,0,0,0,3.78,2c2.11.47,3.16-.59,3.16-2.7V43.52c0-.49.1-1,.16-1.66.55.32.9.5,1.22.73a20.81,20.81,0,0,1,8.77,13c1.77,8.4-.69,15.58-7.19,21.15a17,17,0,0,0-4.35,5.63c-.45.91-.94,1.8-1.49,2.84,8.3-1.85,18.82-11.72,18.4-25.66a26.5,26.5,0,1,0-53,2A25.79,25.79,0,0,0,32,80a22.26,22.26,0,0,0,9.09,5.13,59,59,0,0,0-2.86-5.74,5.59,5.59,0,0,0-1.48-1.69,21.6,21.6,0,0,1,.73-35.2A12,12,0,0,1,38.62,41.91ZM82.13,20.85c-.65-.35-.95-.53-1.26-.67C71.94,16.4,63,12.68,54.11,8.82,51.47,7.67,49,6.49,46.25,8.43a7.38,7.38,0,0,1-1.54.69C40.27,11,36,13.31,31,13.29c-1,0-1.3.64-1.29,1.54,0,2.21,0,4.43,0,6.65s-.14,4.65-.31,7c-.1,1.35-.41,2.69-.57,4-.12,1.1.33,1.48,1.62,1.49s1.87-.37,1.78-1.49-.25-2-.38-3c-.17-1.31-.35-2.61-.52-3.92-.08-.63.2-.92.84-.78s1,.28,1.52.4c1.22.3,1.54.12,1.41-1.11A4.41,4.41,0,0,1,37,20a18.69,18.69,0,0,1,10-4.13,20.09,20.09,0,0,1,15.52,4.26A4.32,4.32,0,0,1,64.42,24c-.11,1.28.23,1.47,1.5,1.14,4.32-1.12,8.64-2.23,13-3.36C79.86,21.55,80.83,21.23,82.13,20.85ZM37.33,34.53c8.35-4.22,16.54-3.89,24.88,0V33c0-2.86-.08-5.72,0-8.58a3.46,3.46,0,0,0-1.46-3.08c-4.24-3.41-9.1-4.27-14.33-3.47a14.24,14.24,0,0,0-8.24,3.93,3.64,3.64,0,0,0-.93,2.2c-.1,3,0,6,0,9.06C37.24,33.4,37.28,33.79,37.33,34.53ZM59.76,75.46c-3.22.23-5.33-1.26-7.45-2.85a4.13,4.13,0,0,0-5.26,0A23.24,23.24,0,0,1,43.5,74.9a18.56,18.56,0,0,1-3.65.81,2.38,2.38,0,0,0,.14.57c1.8,3.32,3.59,6.64,5.43,9.94a1.42,1.42,0,0,0,1,.6c2.11.07,4.23.12,6.35,0A2,2,0,0,0,54,85.94c.88-1.43,1.65-2.94,2.46-4.42ZM28,16.23,17.49,20.66c.29.24.4.38.53.42,3.06.8,6.12,1.61,9.2,2.36a.9.9,0,0,0,.7-.5C28,20.83,28,18.71,28,16.23Zm21.5,77.34.43,0,2.31-4.25h-5.1Z" transform="translate(-10.6 -7.4)"/><path class="b" d="M38.62,41.91a12,12,0,0,0-1.1.56,21.6,21.6,0,0,0-.73,35.2,5.59,5.59,0,0,1,1.48,1.69,59,59,0,0,1,2.86,5.74A22.26,22.26,0,0,1,32,80,25.79,25.79,0,0,1,23.26,61.5a26.5,26.5,0,1,1,53-2c.42,13.94-10.1,23.81-18.4,25.66.55-1,1-1.93,1.49-2.84a17,17,0,0,1,4.35-5.63c6.5-5.57,9-12.75,7.19-21.15a20.81,20.81,0,0,0-8.77-13c-.32-.23-.67-.41-1.22-.73-.06.68-.15,1.17-.16,1.66V67.21c0,2.11-1.05,3.17-3.16,2.7a12.37,12.37,0,0,1-3.78-2c-.33-.21-.35-1-.35-1.56,0-8.38,0-16.76,0-25.14,0-.4,0-.81,0-1.21,0-.78-.31-1.22-1.14-1.22-1.65,0-3.3,0-5,0-1,0-1.25.49-1.23,1.37,0,1.24,0,2.49,0,3.74,0,8-.07,16,0,23.94,0,2.11-1.5,2.57-2.78,3.32a3.49,3.49,0,0,1-4.08-.31,2.28,2.28,0,0,1-.47-1.63c0-8.54,0-17.09,0-25.63C38.76,43.12,38.68,42.62,38.62,41.91Z" transform="translate(-10.6 -7.4)"/><path class="b" d="M82.13,20.85c-1.3.38-2.27.7-3.25,1-4.32,1.13-8.64,2.24-13,3.36-1.27.33-1.61.14-1.5-1.14a4.32,4.32,0,0,0-1.87-3.94A20.09,20.09,0,0,0,47,15.83,18.69,18.69,0,0,0,37,20a4.41,4.41,0,0,0-2,4.13c.13,1.23-.19,1.41-1.41,1.11-.51-.12-1-.29-1.52-.4s-.92.15-.84.78c.17,1.31.35,2.61.52,3.92.13,1,.29,2,.38,3S31.79,34,30.41,34s-1.74-.39-1.62-1.49c.16-1.35.47-2.69.57-4,.17-2.33.26-4.65.31-7s0-4.44,0-6.65c0-.9.32-1.54,1.29-1.54,5,0,9.3-2.32,13.74-4.17a7.38,7.38,0,0,0,1.54-.69c2.74-1.94,5.22-.76,7.86.39C63,12.68,71.94,16.4,80.87,20.18,81.18,20.32,81.48,20.5,82.13,20.85Z" transform="translate(-10.6 -7.4)"/><path class="b" d="M37.33,34.53c0-.74-.09-1.13-.09-1.52,0-3-.06-6,0-9.06a3.64,3.64,0,0,1,.93-2.2,14.24,14.24,0,0,1,8.24-3.93c5.23-.8,10.09.06,14.33,3.47a3.46,3.46,0,0,1,1.46,3.08c-.11,2.86,0,5.72,0,8.58v1.6C53.87,30.64,45.68,30.31,37.33,34.53Z" transform="translate(-10.6 -7.4)"/><path class="b" d="M59.76,75.46l-3.3,6.06c-.81,1.48-1.58,3-2.46,4.42a2,2,0,0,1-1.26.92c-2.12.08-4.24,0-6.35,0a1.42,1.42,0,0,1-1-.6c-1.84-3.3-3.63-6.62-5.43-9.94a2.38,2.38,0,0,1-.14-.57,18.56,18.56,0,0,0,3.65-.81,23.24,23.24,0,0,0,3.55-2.24,4.13,4.13,0,0,1,5.26,0C54.43,74.2,56.54,75.69,59.76,75.46Z" transform="translate(-10.6 -7.4)"/><path class="b" d="M28,16.23c0,2.48,0,4.6,0,6.71a.9.9,0,0,1-.7.5c-3.08-.75-6.14-1.56-9.2-2.36-.13,0-.24-.18-.53-.42Z" transform="translate(-10.6 -7.4)"/><path class="b" d="M49.45,93.57l-2.36-4.28h5.1l-2.31,4.25Z" transform="translate(-10.6 -7.4)"/></g><text class="c" transform="translate(0 49.16)">aid<tspan class="d" x="26.19" y="0">T</tspan><tspan class="e" x="36.64" y="0">ud</tspan><tspan class="f" x="58.21" y="0">e</tspan><tspan class="e" x="68.68" y="0">s</tspan></text></svg>