<svg id="Logo" xmlns="http://www.w3.org/2000/svg" xmlns:xlink="http://www.w3.org/1999/xlink" width="293.25" height="294.803" viewBox="0 0 293.25 294.803">
  <defs>
    <linearGradient id="linear-gradient" x1="1.076" y1="-0.046" x2="0.089" y2="1" gradientUnits="objectBoundingBox">
      <stop offset="0" stop-color="#ba95e7"/>
      <stop offset="0.14" stop-color="#ba95e7"/>
      <stop offset="1" stop-color="#9965f3"/>
    </linearGradient>
  </defs>
  <g id="Logo-2" transform="translate(0 1)">
    <path id="Logo-3" d="M303.8,27.178c-.625,27.173-7.434,50.911-18.115,73.649-20.052,42.6-49.286,78.271-83.768,109.942a13.379,13.379,0,0,0-4.56,8c-2.374,13.868-4.685,27.8-7.371,41.6a15.605,15.605,0,0,1-4,7.808c-11.619,11.431-23.488,22.551-35.294,33.795-5.31,5-7.059,4.5-9.62-2.374-5.122-14.055-10.307-28.11-15.3-42.165-.937-2.624-2.061-3.248-4.747-2.811a63.637,63.637,0,0,1-26.361-1.187c-1.249-.312-3.373.562-4.373,1.562-4.748,4.872-9.37,9.932-13.868,15.055-2.686,3.061-5.122,3.186-8,.187-4.06-4.123-8.371-8.058-12.618-11.994-2.374-2.186-2.5-4.31-.375-6.809,4.31-5.122,8.62-10.245,12.618-15.554a5.5,5.5,0,0,0,.562-4.81,48.275,48.275,0,0,1-5.622-21.738c-.062-2.749-1.249-3.748-3.623-4.435-14.118-4-28.173-8.183-42.29-12.244-7.871-2.249-8.308-3.748-3-10.182,10.057-12.056,20.114-24.112,30.047-36.293a15.636,15.636,0,0,1,8.558-5.435c14.18-3.81,28.3-7.683,42.353-11.869a13.167,13.167,0,0,0,5.934-4.56,333.8,333.8,0,0,1,101.7-87.766c22.051-12.431,45.476-21.489,70.838-24.425,8-.937,16.179-.437,24.3-.625,3.248-.062,4.747,1.687,5.06,4.81C303.24,20.619,303.615,24.8,303.8,27.178ZM153.382,132.748a30.022,30.022,0,0,0,29.36,30.546c16.366.437,30.421-12.868,30.734-29.172a30.374,30.374,0,0,0-29.8-31.171C167.624,102.576,153.757,116.256,153.382,132.748Z" transform="translate(-10.552 -11.497)" fill="#fff"/>
  </g>
  <g id="Logo-4" transform="translate(0 0)">
    <path id="Logo-5" d="M303.8,27.178c-.625,27.173-7.434,50.911-18.115,73.649-20.052,42.6-49.286,78.271-83.768,109.942a13.379,13.379,0,0,0-4.56,8c-2.374,13.868-4.685,27.8-7.371,41.6a15.605,15.605,0,0,1-4,7.808c-11.619,11.431-23.488,22.551-35.294,33.795-5.31,5-7.059,4.5-9.62-2.374-5.122-14.055-10.307-28.11-15.3-42.165-.937-2.624-2.061-3.248-4.747-2.811a63.637,63.637,0,0,1-26.361-1.187c-1.249-.312-3.373.562-4.373,1.562-4.748,4.872-9.37,9.932-13.868,15.055-2.686,3.061-5.122,3.186-8,.187-4.06-4.123-8.371-8.058-12.618-11.994-2.374-2.186-2.5-4.31-.375-6.809,4.31-5.122,8.62-10.245,12.618-15.554a5.5,5.5,0,0,0,.562-4.81,48.275,48.275,0,0,1-5.622-21.738c-.062-2.749-1.249-3.748-3.623-4.435-14.118-4-28.173-8.183-42.29-12.244-7.871-2.249-8.308-3.748-3-10.182,10.057-12.056,20.114-24.112,30.047-36.293a15.636,15.636,0,0,1,8.558-5.435c14.18-3.81,28.3-7.683,42.353-11.869a13.167,13.167,0,0,0,5.934-4.56,333.8,333.8,0,0,1,101.7-87.766c22.051-12.431,45.476-21.489,70.838-24.425,8-.937,16.179-.437,24.3-.625,3.248-.062,4.747,1.687,5.06,4.81C303.24,20.619,303.615,24.8,303.8,27.178ZM153.382,132.748a30.022,30.022,0,0,0,29.36,30.546c16.366.437,30.421-12.868,30.734-29.172a30.374,30.374,0,0,0-29.8-31.171C167.624,102.576,153.757,116.256,153.382,132.748Z" transform="translate(-10.552 -11.497)" fill="url(#linear-gradient)"/>
  </g>
</svg>
